<?xml version="1.0" encoding="UTF-8" standalone="no"?>
<svg xmlns="http://www.w3.org/2000/svg" viewBox="0 0 24 24"><title>Codepen</title><g id="Codepen"><path d="M22.89,6.48,14.11.63a3.86,3.86,0,0,0-4.22,0L1.11,6.48A2.5,2.5,0,0,0,0,8.56v6.86a2.5,2.5,0,0,0,1.11,2.08l8.78,5.85a3.8,3.8,0,0,0,4.22,0l8.78-5.85A2.5,2.5,0,0,0,24,15.43V8.56A2.5,2.5,0,0,0,22.89,6.48ZM13,3.49a.5.5,0,0,1,.77-.42l7,4.5a.5.5,0,0,1,0,.84l-4,2.5a.5.5,0,0,1-.54,0l-3-2A.5.5,0,0,1,13,8.49ZM3.23,7.57l7-4.5a.5.5,0,0,1,.77.42v5a.5.5,0,0,1-.22.42l-3,2a.5.5,0,0,1-.54,0l-4-2.5a.5.5,0,0,1,0-.84ZM2.5,14a.5.5,0,0,1-.5-.5v-3a.5.5,0,0,1,.76-.43l2.5,1.5a.5.5,0,0,1,0,.86l-2.5,1.5A.5.5,0,0,1,2.5,14ZM11,20.5a.5.5,0,0,1-.5.5.5.5,0,0,1-.27-.08l-7-4.5a.5.5,0,0,1,0-.84l4-2.5a.5.5,0,0,1,.54,0l3,2a.5.5,0,0,1,.22.42Zm1-6.6a.5.5,0,0,1-.28-.08l-2.1-1.4a.5.5,0,0,1,0-.83l2.1-1.4a.5.5,0,0,1,.55,0l2.1,1.4a.5.5,0,0,1,0,.83l-2.1,1.4A.5.5,0,0,1,12,13.89Zm8.77,2.52-7,4.5a.5.5,0,0,1-.27.08.5.5,0,0,1-.5-.5v-5a.5.5,0,0,1,.22-.42l3-2a.5.5,0,0,1,.54,0l4,2.5a.5.5,0,0,1,0,.84ZM22,13.49a.5.5,0,0,1-.76.43l-2.5-1.5a.5.5,0,0,1,0-.86l2.5-1.5a.5.5,0,0,1,.76.43Z" style="fill:#30ECDF"/></g>
</svg>
