<?xml version="1.0" encoding="UTF-8"?><svg xmlns="http://www.w3.org/2000/svg" xmlns:xlink="http://www.w3.org/1999/xlink" width="22px" height="23px" viewBox="0 0 22 23" version="1.1"><title>github</title><g id="Page-1" stroke="none" stroke-width="1" fill="none" fill-rule="evenodd" stroke-linecap="round" stroke-linejoin="round"><g id="Artboard" transform="translate(-859.000000, -1692.000000)" stroke="#000" stroke-width="2"><g id="github" transform="translate(860.000000, 1692.000000)"><path stroke="#30ECDF" d="M7 19c-5 1.5-5-2.5-7-3m14 6v-3.87a3.37 3.37 0 0 0-.94-2.61c3.14-.35 6.44-1.54 6.44-7A5.44 5.44 0 0 0 18 4.77 5.07 5.07 0 0 0 17.91 1S16.73.65 14 2.48a13.38 13.38 0 0 0-7 0C4.27.65 3.09 1 3.09 1A5.07 5.07 0 0 0 3 4.77a5.44 5.44 0 0 0-1.5 3.78c0 5.42 3.3 6.61 6.44 7A3.37 3.37 0 0 0 7 18.13V22" id="Shape"/></g></g></g></svg>